<svg version="1" xmlns="http://www.w3.org/2000/svg" width="693.333" height="693.333" viewBox="0 0 520.000000 520.000000"><path d="M383 115.1c-3 .3-7.3.9-9.5 1.3s-5.6.9-7.5 1.2c-3.8.6-6.3 1-9.5 1.7-1.1.3-4.9.8-8.5 1.2-3.6.4-6.8.9-7.2 1.1-.9.6-5.2 1.2-12.3 1.9-4.9.5-10.8 1.5-13.2 2.2-.7.2-2.8.6-4.5.9-23.4 4-29.5 5.1-30.6 5.8-.4.2-3.7.6-7.2.7-3.6.1-10.1 1-14.5 2-4.4.9-10.5 2-13.5 2.4-3 .4-5.7.8-6 1-.3.2-2.7.6-5.5.9-8.8 1.2-16.2 2.5-20.5 3.6-1.9.5-5.5 1.2-8 1.5-2.5.3-5.6.7-7 1-1.4.3-3.6.7-5 1-1.4.3-4.7.9-7.5 1.4-5.2 1.1-11.3 2.1-15.5 2.6-2.6.3-8.6 1.3-12.4 2.1-4.4.8-8.2 1.4-11.9 1.8-2.1.3-5.4 1.7-7.3 3.1-3 2.3-3.4 3.1-3.2 6.6.1 2.2.6 4.3 1 4.5.4.3.4 1.3-.1 2.3-.5.9-1.2 4.3-1.5 7.5-.7 8.1-2.9 10.2-10.3 10.5-3.1.1-5.9.3-6.2.5-.3.2-3.1.7-6.1 1.1-3 .4-5.7.8-6 1-.3.2-2.6.6-5 1-2.5.3-5.2.8-6 1-.8.2-3.1.7-5 1-3.5.5-6.4 1.1-11 2.1-4.2.9-6.3 1.2-10.7 1.8-2.4.3-9.8 1.9-16.6 3.6-15.3 3.8-16.5 4.1-20 4.6-6.2.9-19.1 11.1-20.3 16-.4 1.5.5 4.5 2.5 8.5 8.3 16.7 18.9 24.1 47.1 32.8 7.4 2.3 14.1 4.4 14.8 4.6.7.3 1.6.5 2 .6.4 0 1.6.6 2.6 1.1 4.2 2.3 27.1 8 37.1 9.3 2.8.4 6.9 1 9.2 1.5 2.3.4 8.2.8 13 1 4.8.1 10.8.5 13.3.9s6 .3 7.8-.2c6.1-1.6 7.8 2.3 4.3 9.9-2.6 5.7-14.9 18.4-20.8 21.4-2.6 1.4-5.1 2.8-5.4 3.3-.3.4-1.4.9-2.5 1.1-3.6.8-9.2 3.5-12.3 6.1-3.9 3.3-5.3 8.5-5.2 18.9.2 12.1 0 11.7 4.3 13.4 2.1.8 3.8 1.8 3.8 2.3 0 .4 1.3 1 3 1.4 1.6.4 3 1 3 1.5 0 1.4 14.4 7.9 18.1 8.1 4 .3 10.5-.8 13.6-2.3 1.3-.6 2.6-.8 3-.5.3.4 1.3.1 2.1-.5 2.2-1.8 19.9-1.4 30.6.7 1.6.3 3.3.8 3.8 1.1.5.3.7 6.5.6 13.8-.2 10.1 0 13.9 1.2 16 1.2 2.3 5.7 5.7 20.5 15.4 3.5 2.2 11.8 6.1 12.4 5.7.3-.1 2.2-.6 4.1-.9 8.6-1.4 39-10.6 45.2-13.7 3.9-2 6.9-5.6 8.5-10.4.6-1.7 1.6-2.9 2.2-2.7.7.1 1-.1.7-.6-.5-.9 6.6-8.2 8-8.2.4 0 1.5-.6 2.3-1.3.9-.7 5-2.6 9.1-4.1 10.5-3.9 12.3-4.4 14-4.4.8 0 2.9-.3 4.5-.7 4.1-1 22.8-1.1 29.7-.2 4.7.6 10.9 2.1 17.3 4.1.6.1 2.7 1.1 4.8 2.1l3.8 1.9 5.2-2.6c5.3-2.7 35-13 36.4-12.6 2.1.5 9.7-2.6 12.3-5 2.9-2.7 3-2.9 3.5-15 .2-7 0-13.4-.6-14.9-1-2.7-6.6-8.3-8.4-8.3-.5 0-2.1-1.1-3.5-2.4-6.5-6.3-10.4-9.6-11.3-9.6-.6 0-.8-.2-.5-.5.3-.3-1.1-2.3-3.1-4.4-4-4.4-11-17.3-11.5-21.2-.1-1.3-.5-2.9-.8-3.4-1.2-2.1-.8-16.8.6-21 2.5-7.2 7.7-17.6 9.2-18.2.8-.3 1.4-1.2 1.4-2s1.3-2.8 3-4.6c1.6-1.8 3-3.6 3-4 0-.5.5-.5 1-.2.6.3 1 .2 1-.3 0-1.8 10.8-12.3 18-17.6 4.1-3 8.6-6.3 10-7.4 3.6-2.7 19-10.5 29.2-14.8 4.8-2 9.2-4.1 9.7-4.8.5-.6 1.2-7.1 1.6-14.4.6-12.3.5-13.5-1.4-17.3-3-5.6-3.8-6.3-10.1-8.4-3-1-5.9-2.1-6.5-2.5-.9-.6-4.8-1.9-8.3-2.6-2.4-.5-23.3-7-29.2-9.2-.8-.3-1.9-.6-2.5-.8-.5-.1-2.3-.8-4-1.5-3.6-1.5-3.2-1.4-7-2.4-1.6-.4-3.4-1-4-1.4-.5-.3-1.4-.6-2-.6-.5-.1-2.1-.6-3.5-1.2-4.8-2.1-20.1-7.5-22.8-8-4.5-.8-8.4-.9-14.2-.2zm24.3 7.8c2.3 1 5.9 2.4 7.9 3 4 1.3 7.2 4.1 4.6 4.1-2.2 0-12.1-3.1-13.5-4.2-.7-.5-1.7-.7-2.2-.4-.5.4-1.2.2-1.6-.4-.3-.5-1.4-1-2.4-1s-2.9-1-4.2-2.1l-2.4-2.2 4.8.6c2.6.4 6.6 1.5 9 2.6zm-22 .2c4 1.1 8.1 2.5 9.2 2.9 1.1.5 4 1.4 6.5 2 2.5.6 6.1 1.7 8 2.5 3.3 1.3 18.9 6 27.2 8.3 2.9.8 3.5.7 3.1-.4-.2-.7-1.9-1.6-3.6-2-1.7-.3-3.8-1-4.7-1.4-7.5-3.5-10.3-6.2-5.5-5.3 1.4.3 2.5.9 2.5 1.4 0 .4.8.6 1.8.4 1-.1 3.5.6 5.7 1.6 2.1 1 4.6 1.9 5.4 1.9.9 0 2.9.7 4.5 1.5 1.5.8 3.7 1.5 4.7 1.5s4.4 1 7.6 2.2c3.2 1.2 6.3 2.1 7 2 .7-.2 3 .6 5.2 1.8 2.2 1.1 4.8 2 5.7 2 .9 0 2.8.6 4.2 1.4 1.5.7 3.9 1.9 5.4 2.6 3 1.4 4.4 3.8 3 5.2-.5.5-2.9 1.1-5.3 1.3-5.9.6-13.2 2-14.6 2.8-.6.4-3.1.9-5.4 1.2-2.4.3-6.2 1.1-8.4 1.6-2.2.6-4.9 1.3-6 1.5-1.1.2-3.3.7-5 1-1.6.4-4.1.8-5.5 1-1.4.1-3.6.5-5 .9-10.1 2.8-16 2.4-16-1.1 0-1.6-16.8-9.7-18.7-9-2.6 1-1.2 2.7 4.3 5.1 3.1 1.4 6.2 2.5 6.8 2.5.7 0 2.7 1.1 4.4 2.4l3.2 2.3-4.2 1.2c-4.3 1.1-14.9 3.1-23.8 4.4-1.4.2-3.6.7-5 1.2-1.4.4-3.6.9-5 1.1-1.4.2-4.7.8-7.5 1.3-2.7.5-6.6 1.2-8.5 1.6-1.9.3-4.4 1-5.5 1.5-1.1.4-6 1.6-11 2.5-4.9.9-9.9 1.9-11 2.1-1.1.3-4 .9-6.5 1.4-2.5.6-5.6 1.2-7 1.5-1.4.2-4.1.9-6 1.5-1.9.6-7.1 1.5-11.5 2-9.5 1.1-33.2 5.3-39.5 7-2.5.7-5.8 1.3-7.5 1.5-1.6.1-6.5 1-10.8 1.9-8.3 1.7-14.5 1.3-15.4-1-.3-.8-1.6-1.4-2.9-1.4-1.4 0-4.4-1-6.7-2.1-2.3-1.2-4.4-2.2-4.7-2.2-.3 0-6.7-3.1-14.3-6.9-7.6-3.8-14.1-6.6-14.6-6.4-.5.3-.6 3.7-.3 7.6.2 3.8.2 7-.2 7-.3 0-1.5-.5-2.5-1.2-1-.6-2.6-.8-3.5-.5-2.2.9-.8 3.5 3.3 6.2 3.9 2.5 8.9 12 10.6 20.3 3.1 14.3.9 17.8-3.1 5.2-4.6-14.5-12.7-27-17.5-27-1.5 0-1.1 1.8 2.1 9 2.2 5 3.2 9 3.5 14.7l.5 7.8-2.5-6.5c-5.2-13.4-9.3-20.9-12.5-22.5-2.8-1.4-3.1-1.4-3.7.1-.3.9.3 3.9 1.5 6.7 2.5 6.3 3.8 13.7 2.4 13.7-.6 0-3.1-3.8-5.6-8.4-5.1-9.4-6.5-10.9-9.8-10.4-2.9.4-2.7 3.4.6 8.6 3 4.8 4.9 11 4.4 14.2-.3 2-1 1.1-4-5-5.2-10.9-12.2-18.4-14.1-15.3-.3.5.8 3.5 2.4 6.8 3.1 6.4 4.3 11.2 3.7 14.2-.3 1.4-.9.8-2.6-2.4-5.5-10.6-13.7-19.8-15.3-17.2-.8 1.4-.1 3.9 1.2 3.9.5 0 .9.6.9 1.4 0 .8.4 1.6 1 1.8.5.1 1.6 3 2.5 6.3 3.1 12.3 1.2 12.8-4.5 1.1-4.5-9.1-8.9-14.2-11.5-13.3-1.7.7-1.3 4.1 1.1 8.9.8 1.5 1.4 4.2 1.4 6-.1 3.8.7 4.5-8.5-7.6-2.7-3.6-5.6-6.6-6.3-6.6-2.3 0-2.4 2.8-.2 7.7 2.6 5.9 3.9 14 2.1 12.9-.7-.5-2.8-4.2-4.8-8.3-3.8-8.1-6.3-11.3-8.8-11.3-1.9 0-2 5.3-.1 6.9 1.8 1.5 5 13.1 3.9 14.2-.5.5-3.3-2.8-6.3-7.5-6.9-10.5-13-14.8-13-9.1 0 1.4.3 2.5.8 2.5 1.7 0 7.2 12 7.2 15.7 0 4-1.7 4.3-3.1.7-1.5-4.1-10-16.3-12.7-18.5-1.4-1-3.1-1.9-3.8-1.9-1.6 0-1.9 3.6-.4 4.5 1.2.7 5.3 8.5 4.5 8.5-.2 0 0 1.2.5 2.6.6 1.5.7 3.2.1 4.2-.7 1.2-1.3.7-3.1-2.9-6.6-13.1-19-20.9-14.3-9 .9 2.3 1.3 4.5.8 4.9-.4.4-1 .2-1.2-.4-.2-.6-1.7-2.9-3.3-5.1-5.1-7-8.9-6-5.8 1.4 1.5 3.6 1.9 7.1.9 7.7-.4.3-2.5-1.8-4.6-4.6-3.9-5.1-11.2-9.5-12.8-7.9-.5.5-.3 2.8.3 5.1 2.4 8.9-3.1 13.6-7 6-2.7-5.2-2.5-7 .9-11.7 3.2-4.4 6.7-6 19.6-8.9 3.9-.8 9.9-2.2 13.5-3 14-3.2 32.6-6.7 58.5-11 5.5-.9 12.7-2.3 16-3 8.4-1.9 13.7-2.5 23.2-2.6l8.1-.1 1.3-5.8c1.4-6.2 2.1-7 3.8-4.2 1 1.7 1.1 1.6 1.7-.4.3-1.1 1.5-2.4 2.6-2.6 3-.8 1.8-2.9-3.1-5.4-6.5-3.3-9.2-5.3-8.6-6.3.3-.5 0-1.8-.7-2.9-.9-1.5-.9-2.3.1-3.5 2.6-3.1 10.8-1.8 28.1 4.3 4.7 1.7 9.1 3 9.8 3.1 2.2 0 1.3-2-1.3-3-1.4-.5-4.4-1.8-6.8-2.8-2.3-1.1-5.4-2.2-6.9-2.6-1.6-.3-2.8-1.3-2.8-2.1 0-2.8 8.2-1.8 16.9 2 4.3 1.9 8.9 3.5 10 3.5 3.7 0 2.2-2.4-2.9-4.7-4.5-2-5-2.5-4.1-4.2 1.2-2.1 1.6-2.1 12 1 7.4 2.2 7.1 2.2 7.1.9 0-.6-1.1-1.5-2.5-2-2.8-1.1-3.3-3.5-.9-4.4 3.2-1.2 10.5-.5 15.9 1.5 5.7 2.1 7.7 2 5.7-.4-.7-.8-.7-1.8-.2-2.7.8-1.3 1.9-1.2 7.7.9 3.7 1.3 7 2.7 7.3 3 1.3 1.6 7.1 4.1 9.2 4 1.6-.1 1.8-.3.6-.6-1-.2-1.8-.8-1.8-1.3s-2.1-2.2-4.7-3.7c-6.8-3.9-7.7-4.9-5-5.7 4.3-1.1 7.3-.6 13.5 2.5 8.2 4 13.2 3.6 5.5-.4-5.2-2.7-6.2-5.1-2.5-5.9 2.5-.5 12.5 1.2 13.7 2.3 1.6 1.6 2.6 1 2.3-1.3-.2-1.6.5-2.6 2.5-3.6 2.6-1.2 3.5-1.2 8.6.7 3.2 1.2 6.5 2.1 7.5 2.1 1.9 0 2.2-1.6.4-2.3-2.5-.8 1.3-3.7 4.9-3.7 3.6 0 13.3 3 19.6 6 4.8 2.4 9.7 3.5 9.7 2.2 0-1.6-2.5-3.2-6.1-3.8-5.7-1-10.1-3.4-9.7-5.2.3-1.4 1.5-1.7 5.9-1.6 5.3.1 7.1.7 18.5 6 2.8 1.3 7.1 3 9.5 3.8 8 2.6 22.3 7.8 26.6 9.7 5.1 2.3 6 2.4 6 .4 0-.8-.9-1.5-2.1-1.5-1.2 0-5.2-1.6-9-3.5-3.7-1.9-7.3-3.5-7.8-3.5-.6 0-2.4-.6-4.1-1.4-1.8-.8-6.5-2.6-10.5-4-10.3-3.6-13.2-5.3-13.2-7.6 0-3.3 7-2.5 21 2.4 6.9 2.4 13.9 4.9 15.5 5.6 4.5 1.9 6.7 2.2 6.3.8-.5-1.5-9-5.9-16-8.3-2.7-.9-4.8-2.1-4.8-2.6 0-.6-.6-.7-1.2-.4-.7.4-.4-.1.6-.9 1.1-.9 2.5-1.6 3.2-1.6 1.7 0 24.6 8 25.9 9.1 1.9 1.4 16.7 6 18.3 5.6 1.8-.4-15.1-8.8-25.5-12.7-2.1-.8-3-1.7-2.6-2.6.6-1.8.1-1.8 8.6.7zm-233 39.9c.9 0 2.1.9 2.7 2 1.1 2 1 2-2.7.5-4.7-2-5.7-3-4.8-4.6.6-.9 1.1-.8 2 .4.7 1 1.9 1.7 2.8 1.7zm334.1 1.6c.7 1.9-1.2 17.7-2.6 21.6-1.9 5.3-3 3-2.3-5 1.2-14.6 3.1-21.2 4.9-16.6zm-8 2c.6 1.5-1.6 17.4-2.9 20.6-1.2 2.9-2.5 2-2.5-1.6 0-4.1 2-18.7 2.6-19.8.8-1.3 2.1-.9 2.8.8zm-337 7.2c-.1 2.9-.5 6-.9 6.9-1.2 3.1-2.3-1.5-1.7-7.5.6-6.9 2.8-6.4 2.6.6zm321.2 4.3c-.3 3.9-.9 7.6-1.2 8.1-1.3 2-2.4-1.8-1.8-6.2.8-7.2 1.4-9 2.6-9 .8 0 .9 2.1.4 7.1zm-312.2.4c-.8 5.7-1.4 7.5-2.5 7.5-1.3 0-1.1-9.7.2-12.2 1.7-3.1 3.1-.3 2.3 4.7zm7.3 1.6c-.1 4.8-.4 5.9-1.7 5.6-1.6-.3-1.9-5-.6-10.1 1.1-4.5 2.5-1.9 2.3 4.5zm281 .6c-.7 8.8-2.5 14.9-3.9 13.5-.6-.6-.5-4.3.2-9.8 1.4-10.7 1.6-11.4 3.1-11.4.9 0 1 2.1.6 7.7zm9 1.6c-.7 7.9-2 12.7-3.7 12.7-1.3 0-1.3-2.7.1-10.9 1.3-8.3 1.6-9.1 3-9.1.8 0 1 2.1.6 7.3zm8 .2c-.7 8.4-2.2 12.4-3.9 10.7-2.2-2.2 1.4-18.1 4.1-18.2.2 0 .1 3.4-.2 7.5zm-23.7-2.3c0 1.8-.5 6.7-1 10.7-.9 7-2.2 10.2-3.5 8.9-.6-.5.9-15.3 2.1-20.6.7-3.4 2.4-2.6 2.4 1zm-19.5 8.4c0 11.1-1 16.4-3.2 16.4-1.4 0-1.5-1.5-1.1-11.9.5-12 1.1-14.5 3.1-13.8.8.2 1.2 3.4 1.2 9.3zm-10.5 3.1c0 8.5-1.4 13.8-3.5 13.4-.6-.1-.9-3.3-.8-7.9.3-10.4 1.1-14.2 2.8-14.2 1.2 0 1.5 1.8 1.5 8.7zm19.6-5.6c-.3 1.7-.6 3.9-.6 4.7 0 1.1-.3 1.3-1.1.5-1.3-1.3-.2-8.3 1.3-8.3.6 0 .8 1.3.4 3.1zm-42.2 1.1c1.9 12.7 1.6 20.7-1 24.3-1.3 1.7-1.6 1.8-2.5.5-1.1-1.7-.8-24.8.4-26.8 1.4-2.1 2.6-1.3 3.1 2zm12.2 9.5c.6 8-.3 12.3-2.7 12.3-.7 0-.9-2.9-.4-8.8 1.1-14.7 2.1-15.9 3.1-3.5zm-21.7 1c0 8.7-1.1 14.5-2.7 15.1-.9.3-1.2-1.3-1.2-5.5 0-9.5 1.1-16.3 2.6-16.3 1.1 0 1.4 1.7 1.3 6.7zm-10.8-3.5c.4 7.9-.2 20.1-1.1 21.8-1.3 2.5-2.6 2.6-3.2.2-.5-1.8.9-20.8 1.7-23 .7-2 2.5-1.4 2.6 1zm-9.7 7.1c1.1 10.4-.6 20.8-3.1 18.3-1-.9-1.7-23-.9-25.2 1.4-3.5 3.1-.4 4 6.9zm-12.5 1.6c1.6 10 1.4 16.6-.5 18.6-.9.9-1.9 1.3-2.3 1-.7-.8-1.2-22.4-.5-24.8 1-3.4 2.1-1.6 3.3 5.2zm-143.1-3.2c-.2 1.3-.7 2.4-1.3 2.4-.5 0-1.1-1.1-1.3-2.4-.2-1.6.2-2.4 1.3-2.4s1.5.8 1.3 2.4zm121.6 2.4c.3 1.7.6 7.5.6 12.8 0 10-1.3 14.3-4 12.6-2-1.2-.1-28.5 2-28.5.4 0 1 1.4 1.4 3.1zM201 208c0 7.7 1.3 9.9 4.3 7.2 1.9-1.7 1.9-1.6 1.2 4.4-.7 6.4-.1 7.8 4 8.6 1.7.3 2 1 1.7 4.8-.2 2.5-.8 4.9-1.3 5.5-1.8 1.8-4.8-2.8-5.8-9.1-.5-3.6-2.7-9.6-5.1-14.3-3.7-7.4-4-8.5-2.9-11 2.3-5.1 3.9-3.4 3.9 3.9zm92 5.9c0 11.3-1.3 18.5-3.3 17.8-.9-.3-1.1-4.1-1-13.3.2-15.3.7-18.1 2.8-16.4 1.2 1 1.5 3.8 1.5 11.9zm-16.7-6.3c1 4.6 0 24-1.4 26.6-.5 1-1.6 1.8-2.4 1.8-1.3 0-1.5-2.6-1.5-15.8 0-8.7.3-16.1.6-16.4 1.6-1.7 3.9.2 4.7 3.8zm49.7 5.3c0 5.5-.4 10.3-1 10.6-1.4.9-2-3.1-1.6-11 .5-9.5.5-9.5 1.6-9.5.6 0 1 4 1 9.9zm-24.1 1.9c-.2 10.6-1 15.4-2.4 13.2-.9-1.5-.9-18.1.1-21.3 1.3-4 2.4 0 2.3 8.1zm-38.7 5.1c-.1 12.5-.9 18.2-2.8 20.1-2.8 2.9-3.6-.6-2.9-14 .6-13.5 1.2-17.1 2.9-18.2 2-1.3 2.8 2.4 2.8 12.1zm-23.3 3.9c-.1 12.1-.6 15.3-2.6 18.7-2.3 3.9-3.5.2-3.6-11.1-.2-7.4.3-12 1.2-14.4 3.8-9.3 5.1-7.4 5 6.8zm10.2-8.2c.4 2.1.3 7.9-.2 12.9-.5 4.9-.9 9.3-.9 9.7 0 .5-.7.8-1.5.8-1.3 0-1.5-2.1-1.5-13.3 0-7.4.3-13.7.7-14.1 1.4-1.4 2.8.2 3.4 4zM226.7 233c-.3 6-1 11.7-1.5 12.6-.9 1.5-1.1 1.5-2.2-.6-.9-1.6-1-4.9-.5-11.3.8-10.4 1.2-11.7 3.3-11.7 1.3 0 1.4 1.5.9 11zm-7.5-5.4c-1.4 2.4-2.1.3-.9-2.6.8-2 1.1-2.2 1.4-.8.2 1 0 2.5-.5 3.4zm183.9 12.1c-5.8 11.7-8.1 19.8-8.7 31.2-.8 16.6-1.8 18.7-4.8 10.7-2.3-6-2.7-15.4-1-22.7 1.5-6.2 7.8-18.9 9.5-18.9.5 0 .9-.5.9-1.1 0-1.5 3.9-4.9 5.7-4.9.9 0 .5 1.6-1.6 5.7zm-188 19.3c-.9 2.3-1 2.1-1-1.6-.1-2.2.2-4.4.7-4.8 1.1-1.2 1.4 3.7.3 6.4zm63.9 16.4c-.8.8-3 1.8-4.9 2.1-1.9.3-3.8.8-4.2 1.1-1.3.8-10.1 2.5-17.1 3.2-5 .6-6.8.5-6.8-.4 0-1.3 4.6-2.8 6-1.9.6.4 1 .3 1-.2 0-.7 3-1.3 8.7-1.7 1.1 0 1.9-.4 1.7-.7-.4-.7.3-.8 8.3-1.2 2.2-.1 3.9-.5 3.6-1-.2-.4.8-.7 2.4-.7 2.4 0 2.5.2 1.3 1.4zm-35 6.5c0 .5-.7 1.1-1.5 1.5-.9.3-1.5 0-1.5-.9 0-.8.7-1.5 1.5-1.5s1.5.4 1.5.9zm-14.4 5.5c.5 2.2.4 2.8-.7 2.4-.8-.2-1.5-2-1.7-3.9-.4-4 1.3-3 2.4 1.5zm48.4-3.5c1.3.1 1.3.3 0 1-2.5 1.4-22 6.2-22.9 5.7-.4-.3-2.2 0-3.8.6-3.6 1.3-6.5.5-5.7-1.6.4-1.1 1.9-1.4 5.3-1.3 2.5 0 5.2-.2 5.8-.6.6-.4 3.6-1.3 6.8-2.2 3.2-.8 6-1.6 6.2-1.9.3-.3 2.2-.2 8.3.3zm58 3.1c0 .5-.4 1-1 1-.5 0-1-.5-1-1 0-.6.5-1 1-1 .6 0 1 .4 1 1zm-148.6 5.4c4.2 2 7.9 3.6 8.2 3.6 1.6 0 38.2 17.9 41.9 20.4 1.7 1.2 4.3 2.8 5.9 3.6 3.3 1.7 5.5 5.5 4 7-.6.6-3.9-.8-9-3.8-7.3-4.4-42.6-22.2-43.9-22.2-.3 0-2.4-1.2-4.7-2.6-2.3-1.5-4.9-2.8-5.8-2.8-3.4-.3-11-4.5-11-6.2 0-2.4 5-1.4 14.4 3zM328 289c0 .5-.6 1-1.4 1-.7 0-4.9 1.2-9.2 2.7-4.4 1.4-10.6 3.2-13.9 3.9-3.3.7-10.9 2.4-17 3.9-6 1.5-12.8 3.1-15 3.5-2.2.5-6 1.8-8.5 2.9-4 1.7-4.2 2-1.8 2 1.5.1 6-.8 10-1.9 9.5-2.5 22.8-3.1 22.8-1 0 1.6-4.2 3.3-12.9 5.1-11.9 2.5-12.5 3.9-1.8 3.9 5.7 0 9.8-.5 11.6-1.4 3.5-1.8 23.1-6.7 29.4-7.3 4.2-.4 4.8-.3 4.5 1.3-.2 1.3-3.4 2.5-13.3 5-7.1 1.8-15.2 4-18 4.9-2.7.9-7.5 2.1-10.5 2.6s-7.2 1.2-9.3 1.5c-2.1.4-4 1.1-4.3 1.5-.8 1.3 4.8 1.1 12.9-.6 4-.8 10.4-1.9 14.2-2.4 3.9-.6 8.5-1.3 10.4-1.7 2.3-.5 3.2-.4 2.7.4-.3.6-2.1 1.3-3.9 1.7-1.7.4-5.9 1.5-9.2 2.6-3.3 1.1-10.7 2.7-16.5 3.7-10 1.7-10.5 1.9-10.5 4.2 0 2-.8 2.7-3.5 3.6-3.4 1.1-5.5 4.4-2.8 4.4 1.8-.1 19-2.6 20.7-3.1.7-.2 1.5.1 1.8.7.3 1-1.5 2-5.8 3-4.1.9-6.9 2.5-6.9 3.9 0 2 2 1.9 10.5-.5 7.8-2.2 12.1-2.5 13-1 .4.6-.1 3.6-1.1 6.8-.9 3.1-2.2 8.3-2.8 11.6l-1.1 5.9-5 1.4c-35 10.2-41.5 11.7-42.9 9.5-.6-1 .9-7.5 2.4-10.7 2.8-5.9 8-23.2 9.4-31.4 2.8-16.6 1.9-22.4-5.1-30.1-5.2-5.8-5.4-6.9-.9-4.1 3.7 2.3 8.8 2.6 15.1 1 2.2-.5 4.7-1.2 5.5-1.4.8-.2 1.5-.4 1.5-.5 0-.1 1.1-.3 2.5-.6 12.5-2.1 19.5-4.1 26.7-7.4 6.1-2.8 27.3-5.2 27.3-3zm-151.5 8.7c.9 2.4 0 2.6-3.6.8-2.2-1.2-2.8-1.9-1.9-2.5 1.7-1.1 4.7-.1 5.5 1.7zm3.5 2.8c1.1 1.3 1 1.4-.4.9-.9-.3-1.6-1-1.6-1.5 0-1.3.6-1.1 2 .6zm-1.2 4.9c3.7 1.9 7.4 4.2 8.2 5.1 1.2 1.5 1.2 1.9-.5 3.1-1 .8-2.5 1.4-3.3 1.4-2.5 0-18.5 9-22.2 12.4-1.9 1.8-5.1 4.5-7.1 6l-3.6 2.6-5.9-3.1c-3.3-1.8-7.2-3.8-8.7-4.6-3.2-1.7-3.2-4-.2-5.7 1.1-.6 3.9-2.3 6.3-3.9 2.4-1.5 4.5-2.7 4.8-2.7 1.1 0 9.5-7 13.1-10.9 3.5-3.9 4.1-4.1 8-3.6 2.4.2 7.3 2 11.1 3.9zm12-1.9c2 1.4 4.2 2.5 4.8 2.5.5 0 2 1.1 3.2 2.4l2.1 2.5-3.6-.5c-1.9-.2-4.7-1.2-6.2-2.2-1.4-1-3.8-2.4-5.3-3.1-1.5-.8-2.9-2-3.2-2.7-.9-2.3 4.2-1.6 8.2 1.1zm35.6 1.7c-.3.5-1.2.4-2-.3-1.9-1.6-1.8-1.8.6-1.2 1.1.3 1.7.9 1.4 1.5zm69.3 2c-.3.8-.6.5-.6-.6-.1-1.1.2-1.7.5-1.3.3.3.4 1.2.1 1.9zm-60.9.3c1.3.1 2.8.7 3.5 1.4.6.6 1.8 1.1 2.7 1.1 1.8 0 8 5.4 8 6.9 0 1.7-1.4 1.3-5.4-1.4-2.1-1.4-5.6-3.5-7.8-4.6-4.8-2.4-8.8-5.9-5.3-4.5 1.1.4 3 .9 4.3 1.1zm93.7-.5c-.3.5-1 1-1.6 1-.5 0-.9-.5-.9-1 0-.6.7-1 1.6-1 .8 0 1.2.4.9 1zm50.5.9c0 .5-.7 1.2-1.6 1.5-2.2.9-2.4.8-2.4-.9 0-.8.9-1.5 2-1.5s2 .4 2 .9zm-7 .8c0 2-4.6 5.3-7.4 5.3-3.8 0-6.5-1.5-5.1-2.9 1.7-1.5 12.5-3.7 12.5-2.4zm8 5.3c0 1.4-3.9 3.2-5.2 2.4-.7-.5-.5-1.1.7-2.1 2.2-1.5 4.5-1.7 4.5-.3zm35 1.1c0 1.5-.4 1.9-1.6 1.5-.9-.3-2-.6-2.5-.6-.4 0-.6-.7-.3-1.5.9-2.4 4.4-1.9 4.4.6zm-11.1.8c1 .7 1.1 1.3.1 3-1.7 3.3-.3 5.9 3.8 7.1 4.8 1.3 6.5 1.3 9.8-.2 2.3-1.1 2.6-1.6 2.1-5-.6-4.5 1-6.1 3.1-3 .8 1.3 2.5 2.2 3.9 2.2 3.1 0 4.1 2.7 1.7 4.4-1 .8-4.6 2.4-8.1 3.6-5.9 2.1-8.2 4-4.8 4 .8 0 1.5.7 1.5 1.5 0 1.9-6 3.4-12.9 3.4-5.2-.1-5.4-.2-12.1-7-3.7-3.8-7.2-6.9-7.7-6.9-.6 0-1.3-.7-1.7-1.5-.9-2.5 4.1-4.8 11.8-5.5 3.9-.4 7.3-.8 7.6-.8.3-.1 1.1.2 1.9.7zm-175.7 6.4c1.9 1.2 6.4 3.8 10.2 5.7 6.7 3.5 9 5.8 8.4 8.5-.3 1.2-.9 1.2-3.8-.2-13.9-6.3-19.4-9.8-20.9-13.1-.6-1.3-1.1-2.5-1.1-2.7 0-1.3 4.3-.2 7.2 1.8zm-14 9.1c-.2 5.8.1 9.6.7 9.6 1.1 0 1.7-1.6 2.7-7.3.4-2.2 1.2-3.7 2-3.7 2.3 0 1.8 10.2-.8 16.3-4.7 11-13.2 20.4-17.2 19.1-2.8-1-4.8-1.2-12.4-1.5-4.9-.1-6.5-.6-7.2-2-1.2-2.1-.2-24.9 1.1-26.3.6-.6.9-.6.9 0 .5 11.4 1.6 18.4 3.1 18.4 1.2 0 1.3-.2 3.9-14.5 1.3-6.6 2.5-12.6 2.7-13.3 1.3-3.3 2.1-.3 2.6 9.5.5 10.8 1.1 15 2.2 16.2 1.1 1.1 2.3-2.2 2.9-8.3 1.3-12.3 1.9-15.6 2.6-15.6.4 0 .7 2.1.8 4.7.3 7.7 1.3 12.3 2.7 12.3 1.4 0 1.8-1.7 3.6-15.3 1.7-12.1 3.5-11.1 3.1 1.7zm146.8-.6c0 7.7-2.8 38.3-3.5 39.1-.3.2-1 0-1.6-.6-.8-.8-.8-3.8-.1-11 .6-5.4 1.4-14 1.7-19.1.3-5.2.8-10.7 1.2-12.3 1-5.2 2.3-3.1 2.3 3.9zm77.4-1.9c.3.5-.1 1.2-1 1.5-2.2.9-2.4.8-2.4-.9 0-1.6 2.5-2.1 3.4-.6zm-304.8 6.9c.7 5-.1 23-1.1 24-.4.4-1.3-.2-2.2-1.3-1.1-1.4-1.3-3.4-.9-7 .3-2.8.6-8.4.6-12.6 0-6 .3-7.6 1.5-7.6.9 0 1.7 1.5 2.1 4.5zm98.2-1.1c1.5.9 4.1 2.9 5.8 4.5 1.7 1.6 4.4 3.2 6 3.7 3.3.8 4.7 4.1 1.7 4.1-1-.1-3.5-.7-5.5-1.4-5.1-1.8-4.9-.2.7 5.1 6 5.6 6 8.6-.1 4.7-3.3-2.2-4.1-1.2-1.7 2.3 1.1 1.5 2.3 3.7 2.7 4.7.8 2.3-1.9 10.3-4.5 13.7-1.6 2-2 2.2-2.9.9-.5-.8-1-1.1-1-.7 0 1.1-18.1-8.5-18.7-9.9-.5-1.3 4-10.8 6.2-13.4.8-.8 1.4-1.8 1.4-2.3.1-.4.8-2.4 1.7-4.5.8-2 1.8-5.8 2.1-8.5.6-5.2 1.7-5.7 6.1-3zm149.7 12.8c-1 10.1-2.5 10.1-2.5-.1 0-5 .3-9.4.7-9.8 1.4-1.4 2.4 4.1 1.8 9.9zm-230.9-6c.8 3.2.1 22.2-.9 23.1-1.7 1.7-2.2-1.5-2.3-13.2 0-9.5.3-12.4 1.3-12.4.7 0 1.5 1.1 1.9 2.5zm220.8-.9c1.6 4.2-.4 26.8-2.6 28.9-.7.7-.9-2.1-.4-9 .3-5.5.6-12.6.6-15.8 0-5.5 1.1-7.4 2.4-4.1zM143 348.5c0 4.7-1.4 6.1-2.3 2.4-.6-2 .7-6.9 1.8-6.9.3 0 .5 2 .5 4.5zm251.7 8.8c-.7 12.2-1.9 17.7-3.2 14.3-.6-1.4 0-10.5 1.7-24.4.1-.6.6-1.2 1.1-1.2.6 0 .8 4.1.4 11.3zm-8.1 2.3c-.3 2.6-.6 6.5-.7 8.8l-.1 4.1-1-3.2c-1.2-3.7-.2-14.3 1.4-14.3.7 0 .8 1.6.4 4.6zM142 363c0 .5-.5 1-1.1 1-.5 0-.7-.5-.4-1 .3-.6.8-1 1.1-1 .2 0 .4.4.4 1zm237 3.2c0 .7-.5 2-1 2.8-.8 1.2-1 .9-1-1.3 0-1.5.5-2.7 1-2.7.6 0 1 .6 1 1.2zm-164.6 14.5c.9 2.2-.4 15.3-1.7 17.8-2 3.8-2.9-3.1-1.6-11.8 1.3-7.7 2.1-9.2 3.3-6zm7.2 12c-.7 6-1.4 8.3-2.8 8.3-1 0-.1-19.6 1-21.5 1.1-1.8 2.3 7.8 1.8 13.2zm9.6-9.5c.8 2.2-.1 16.1-1.3 21-1.9 8.2-3.3 5.8-2.5-4.4.3-5 .6-11.1.6-13.5 0-3 .4-4.3 1.4-4.3.8 0 1.6.6 1.8 1.2z"/><path d="M383.2 138.2c.2.6 1.1 1.5 1.9 1.9 3.5 1.8 8.6 3.8 11.4 4.4l3 .7-3.5-2.3c-1.9-1.3-3.7-2.4-4-2.4-.3-.1-2.2-.9-4.2-1.8-4.4-2-5.1-2.1-4.6-.5zM410.2 139.2c.6 1.8 2.8 2.1 2.8.4 0-.9-.7-1.6-1.6-1.6-.9 0-1.4.5-1.2 1.2zM337 142.9c0 1.3 8.7 5.4 13.7 6.6 2.8.5 3.2.4 2.7-1-.8-2-4.8-4-9.7-4.9-2.1-.4-4.5-1-5.3-1.3-.8-.3-1.4 0-1.4.6zM423.4 143.2c-.7 1.1 1.3 2.8 3.4 2.8.6 0 1.2-.6 1.2-1.4 0-1.7-3.8-2.8-4.6-1.4zM292 144.9c0 .5.7 1.1 1.5 1.5.9.3 1.5 0 1.5-.9 0-.8-.7-1.5-1.5-1.5s-1.5.4-1.5.9zM321.6 147.4c.7 1.9 4.4 2.8 4.4 1.1 0-.7-.7-1.6-1.6-1.9-2.5-1-3.4-.7-2.8.8zM300 148c0 1.3 4.8 3.6 5.7 2.6.9-.8-.6-2.2-3.4-3.1-1.4-.4-2.3-.2-2.3.5zM273 148.4c0 .5 8.3 4.6 9.3 4.6 1.8 0 .4-2.8-1.8-3.8-2.5-1.1-7.5-1.7-7.5-.8zM470.2 150.7c.2 1 1.4 2 2.7 2.1 1.9.3 2.2 0 1.7-1.3-.3-.9-.6-1.9-.6-2.1 0-.2-.9-.4-2.1-.4-1.4 0-1.9.5-1.7 1.7zM444 153.3c0 .8 1.1 1.9 2.5 2.5 5.3 2.4 8.8.6 4.8-2.4-2.4-1.8-7.3-1.8-7.3-.1zM419.7 153.7c-.4.3-.7 1-.7 1.4 0 1.1 6.5 4.4 11.3 5.7 3.3.9 3.8.9 3.5-.5-.2-.9-2.5-2.9-5.3-4.4-5.1-2.8-7.6-3.4-8.8-2.2zM373.2 161.7c.2 1.1 2.2 2.3 5.3 3.3 7.3 2.3 11.8 4.5 13.4 6.3 2.1 2.7 3.1 2 1.9-1.4-.6-1.7-2-3.4-3.2-3.9-8-3.3-15.6-6-16.6-6-.6 0-1 .8-.8 1.7zM347.5 168.1c-1 1.5 0 2.1 7.3 5.2 5 2.1 6.2 2.3 6.2 1.2 0-.9-2.5-2.7-5.7-4.1-3.2-1.5-6.1-2.8-6.5-3-.4-.3-1 .1-1.3.7zM329.4 173.1c-.3.6-.2 1.4.2 1.8 1.6 1.4 10.5 4.3 11.1 3.7 1-.9-2.8-4.6-4.8-4.6-1 0-2.1-.5-2.4-1-.8-1.3-3.2-1.3-4.1.1zM175 178.5c0 1.9 3.6 3.9 4.5 2.5.8-1.3-1.3-4-3.1-4-.8 0-1.4.7-1.4 1.5zM317.2 179.6c.5 2.4 5.5 5.1 6.9 3.7.8-.8.5-1.7-1-3.2-2.5-2.5-6.4-2.9-5.9-.5zM283.6 180.7c-1.4 1.4-.5 3.1 2.2 4.1 1.5.6 3.6 1.3 4.7 1.8 3.2 1.1 4.5 1.3 4.5.5 0-1.5-3.7-3.9-10.1-6.8-.3-.1-.9 0-1.3.4zM303.3 181.6c-.6 1.6 1.2 3.4 3.5 3.4 1.3 0 1.5-1 .6-3.4-.8-2.1-3.3-2.1-4.1 0zM264 183.3c0 1.5 12.1 7.7 15 7.7 3.6 0 1-2.9-5.5-6-6.8-3.2-9.5-3.7-9.5-1.7zM246.5 186c-1 1.6.1 2.5 7.4 5.4 6.7 2.7 8.3 2.7 6.5-.2-2.4-3.7-12.5-7.5-13.9-5.2zM227.2 189.7c.5 2.6 9.6 7.2 14.1 7.3 2 0 3.7-.4 3.7-.8 0-1.4-3.5-4.2-5.1-4.2-.8 0-3.1-.9-5.2-2-4.7-2.5-8-2.6-7.5-.3zM267.8 314.7c.7.3 1.6.2 1.9-.1.4-.3-.2-.6-1.3-.5-1.1 0-1.4.3-.6.6zM268.3 350c-2.9.7-7.3 4.6-7.3 6.4 0 4.6 9.1 6.1 15 2.5 6.8-4.2.8-11.1-7.7-8.9z"/></svg>